<?xml version="1.0" encoding="iso-8859-1"?>
<!-- Uploaded to: SVG Repo, www.svgrepo.com, Generator: SVG Repo Mixer Tools -->
<!DOCTYPE svg PUBLIC "-//W3C//DTD SVG 1.1//EN" "http://www.w3.org/Graphics/SVG/1.1/DTD/svg11.dtd">
<svg fill="#000000" version="1.1" id="Capa_1" xmlns="http://www.w3.org/2000/svg" xmlns:xlink="http://www.w3.org/1999/xlink" 
	 width="800px" height="800px" viewBox="0 0 317.522 317.522"
	 xml:space="preserve">
<g>
	<g id="Artwork_62_">
		<g id="Layer_5_62_">
			<path d="M237.708,192.264h-49.635c-1.125,0-1.055-0.568-0.902-0.867c8.003-15.857,20.037-58.955,17.91-61.498
				c-3.775-4.516-26.25,18.617-39.949,32.316c-1.307,1.307-2.536,2.639-3.689,3.986c-0.471,0.549-1.371,0.873-1.371-0.627v-61.083
				c0-1.834,1.099-2.094,1.644-2.191c21.419-3.848,37.672-22.566,37.672-45.09V13.268c0-13.59-22.233,29.482-26.481,25.234
				C165.224,30.82,157.902,0,153.565,0c-6.145,0-10.325,29.125-18.618,37.418c-3.435,3.434-27.204-36.805-27.204-24.15v43.943
				c0,22.486,16.203,41.184,37.568,45.072c0.579,0.104,1.747,0.459,1.747,2.543v86.284c0,0,0.142,1.153-0.983,1.153
				c-16.564,0-66.259,0-66.259,0c-5.965,0-10.846,4.881-10.846,10.847v19.646c0,5.965,3.052,10.846,6.781,10.846
				c3.73,0,7.331,4.85,8.001,10.775l7.052,62.369c0.67,5.928,6.099,10.776,12.063,10.776h111.788c5.966,0,11.396-4.85,12.064-10.776
				l7.052-62.369c0.669-5.926,4.271-10.775,8.001-10.775c3.73,0,6.781-4.881,6.781-10.846v-19.646
				C248.554,197.145,243.673,192.264,237.708,192.264z M193.778,264.434c-5.608,8.527-29.746,28.803-34.978,28.803
				c-5.126,0-29.483-20.35-35.053-28.803c-2.788-4.232-4.77-8.902-4.441-15.039c0.582-10.869,9.468-19.844,20.349-19.844
				c11.186,0,17.7,11.938,19.108,11.938c1.606,0,8.397-11.938,19.104-11.938c10.881,0,19.768,8.975,20.35,19.844
				C198.545,255.531,196.575,260.182,193.778,264.434z"/>
		</g>
	</g>
</g>
</svg>