<?xml version="1.0" encoding="iso-8859-1"?>
<!-- Uploaded to: SVG Repo, www.svgrepo.com, Generator: SVG Repo Mixer Tools -->
<svg height="800px" width="800px" version="1.1" id="Capa_1" xmlns="http://www.w3.org/2000/svg" xmlns:xlink="http://www.w3.org/1999/xlink" 
	 viewBox="0 0 480 480" xml:space="preserve">
<g>
	<path style="fill:#7CDAAF;" d="M417.398,183.152c0.4,2.334,0.759,4.681,1.068,7.045
		C418.157,187.833,417.798,185.486,417.398,183.152z"/>
	<path style="fill:#7CDAAF;" d="M279.698,38.152c2.165,0.487,4.314,1.015,6.448,1.579C284.012,39.167,281.863,38.639,279.698,38.152
		z"/>
	<path style="fill:#7CDAAF;" d="M308.404,47.217c1.145,0.471,2.283,0.953,3.415,1.446C310.687,48.17,309.549,47.688,308.404,47.217z
		"/>
	<path style="fill:#7CDAAF;" d="M405.635,143.184c0.146,0.343,0.291,0.686,0.435,1.029
		C405.926,143.87,405.781,143.526,405.635,143.184z"/>
	<path style="fill:#7CDAAF;" d="M240,33.75c-99.411,0-180,80.589-180,180h180V33.75z M127.5,191.25c-8.284,0-15-6.716-15-15
		c0-8.284,6.716-15,15-15c8.284,0,15,6.716,15,15C142.5,184.534,135.784,191.25,127.5,191.25z M165,93.75c0-8.284,6.716-15,15-15
		s15,6.716,15,15c0,8.284-6.716,15-15,15S165,102.034,165,93.75z M195,168.75c-8.284,0-15-6.716-15-15c0-8.284,6.716-15,15-15
		s15,6.716,15,15C210,162.034,203.284,168.75,195,168.75z"/>
	<path style="fill:#7CDAAF;" d="M262.925,35.196c3.003,0.382,5.983,0.837,8.938,1.365C268.908,36.034,265.928,35.578,262.925,35.196
		z"/>
	<path style="fill:#E17277;" d="M446.617,266.192c-0.263,1.459-0.541,2.913-0.833,4.362
		C446.076,269.105,446.354,267.651,446.617,266.192z"/>
	<path style="fill:#E17277;" d="M447.832,258.75c-0.277,1.937-0.59,3.863-0.92,5.783
		C447.242,262.613,447.555,260.687,447.832,258.75z"/>
	<path style="fill:#E17277;" d="M445.474,272.082c-0.399,1.9-0.817,3.792-1.267,5.672
		C444.657,275.874,445.076,273.982,445.474,272.082z"/>
	<path style="fill:#E17277;" d="M436.489,302.875c-0.653,1.73-1.324,3.453-2.021,5.161
		C435.164,306.328,435.836,304.606,436.489,302.875z"/>
	<path style="fill:#E17277;" d="M434.371,308.276c-0.781,1.906-1.59,3.798-2.425,5.676
		C432.781,312.074,433.591,310.183,434.371,308.276z"/>
	<path style="fill:#E17277;" d="M444.059,278.345c-0.411,1.699-0.846,3.388-1.299,5.071
		C443.213,281.734,443.648,280.044,444.059,278.345z"/>
	<path style="fill:#E17277;" d="M438.688,296.769c-0.571,1.667-1.163,3.324-1.774,4.971
		C437.524,300.092,438.117,298.436,438.688,296.769z"/>
	<path style="fill:#E17277;" d="M431.815,314.244c-0.781,1.749-1.586,3.484-2.413,5.207
		C430.228,317.728,431.034,315.993,431.815,314.244z"/>
	<path style="fill:#E17277;" d="M240,258.75H32.168c8.433,58.933,41.324,109.974,88.061,142.5H240V258.75z"/>
	<path style="fill:#E17277;" d="M442.348,284.92c-0.423,1.526-0.862,3.045-1.318,4.557
		C441.486,287.965,441.926,286.446,442.348,284.92z"/>
	<path style="fill:#E17277;" d="M440.708,290.556c-0.58,1.886-1.184,3.761-1.815,5.624
		C439.524,294.318,440.128,292.442,440.708,290.556z"/>
	<path style="fill:#E17277;" d="M359.67,401.25h0.101c29.556-20.569,53.565-48.547,69.362-81.239
		C413.318,352.719,389.26,380.682,359.67,401.25z"/>
	<path style="fill:#BF515A;" d="M240,258.75v142.5h119.67c29.59-20.568,53.648-48.531,69.463-81.239
		c0.09-0.186,0.179-0.373,0.269-0.56c0.827-1.723,1.632-3.458,2.413-5.207c0.044-0.098,0.089-0.194,0.132-0.292
		c0.835-1.878,1.644-3.77,2.425-5.676c0.032-0.08,0.063-0.16,0.096-0.24c0.697-1.708,1.368-3.43,2.021-5.161
		c0.143-0.378,0.284-0.756,0.425-1.135c0.611-1.648,1.204-3.304,1.774-4.971c0.067-0.197,0.138-0.392,0.205-0.588
		c0.631-1.863,1.235-3.738,1.815-5.624c0.11-0.358,0.214-0.72,0.322-1.079c0.456-1.512,0.895-3.031,1.318-4.557
		c0.139-0.501,0.277-1.002,0.412-1.504c0.453-1.682,0.887-3.372,1.299-5.071c0.048-0.198,0.1-0.393,0.148-0.591
		c0.45-1.88,0.868-3.772,1.267-5.672c0.107-0.508,0.206-1.019,0.309-1.529c0.293-1.448,0.571-2.902,0.833-4.362
		c0.099-0.553,0.201-1.105,0.296-1.659c0.33-1.92,0.642-3.846,0.92-5.783H240z"/>
	<polygon style="fill:#BF515A;" points="240,416.25 240,401.25 120.229,401.25 120,401.25 120,446.25 240,446.25 	"/>
	<polygon style="fill:#BF515A;" points="240,258.75 240,213.75 60,213.75 0,213.75 0,258.75 32.168,258.75 	"/>
	<polygon style="fill:#944851;" points="420,213.75 240,213.75 240,258.75 447.832,258.75 480,258.75 480,213.75 	"/>
	<polygon style="fill:#944851;" points="240,401.25 240,416.25 240,446.25 360,446.25 360,401.25 359.771,401.25 359.67,401.25 	"/>
	<path style="fill:#65B1A8;" d="M420,213.75c0-1.553-0.02-3.102-0.059-4.646c-0.162-6.391-0.664-12.698-1.475-18.907
		c-0.309-2.364-0.668-4.711-1.068-7.045c-2.322-13.557-6.154-26.598-11.328-38.939c-0.144-0.344-0.289-0.687-0.435-1.029
		c-18.022-42.247-51.734-76.188-93.816-94.521c-1.133-0.493-2.271-0.975-3.415-1.446c-7.198-2.96-14.627-5.468-22.258-7.486
		c-2.134-0.564-4.283-1.092-6.448-1.579c-2.592-0.583-5.202-1.12-7.835-1.59c-2.955-0.528-5.935-0.984-8.938-1.365
		c-7.507-0.954-15.159-1.446-22.925-1.446v180H420z M292.5,176.25c-8.284,0-15-6.716-15-15c0-8.284,6.716-15,15-15s15,6.716,15,15
		C307.5,169.534,300.784,176.25,292.5,176.25z M330,138.75c-8.284,0-15-6.716-15-15c0-8.284,6.716-15,15-15s15,6.716,15,15
		C345,132.034,338.284,138.75,330,138.75z M360,191.25c-8.284,0-15-6.716-15-15c0-8.284,6.716-15,15-15s15,6.716,15,15
		C375,184.534,368.284,191.25,360,191.25z M285,78.75c8.284,0,15,6.716,15,15c0,8.284-6.716,15-15,15s-15-6.716-15-15
		C270,85.466,276.716,78.75,285,78.75z"/>
	<circle style="fill:#E17277;" cx="195" cy="153.75" r="15"/>
	<circle style="fill:#E17277;" cx="127.5" cy="176.25" r="15"/>
	<circle style="fill:#E17277;" cx="180" cy="93.75" r="15"/>
	<circle style="fill:#BF515A;" cx="285" cy="93.75" r="15"/>
	<circle style="fill:#BF515A;" cx="330" cy="123.75" r="15"/>
	<circle style="fill:#BF515A;" cx="292.5" cy="161.25" r="15"/>
	<circle style="fill:#BF515A;" cx="360" cy="176.25" r="15"/>
</g>
</svg>