<svg xmlns="http://www.w3.org/2000/svg" style="display: none;">
<symbol id="icon-facebook" viewBox="0 0 32 32"><path  d="M21.328 5.312h2.923V.224A36.483 36.483 0 0 0 20.143 0h-.156.008c-4.213 0-7.099 2.65-7.099 7.52V12H8.25v5.688h4.646V32h5.699V17.69h4.459l.707-5.688h-5.168V8.08c0-1.643.443-2.768 2.734-2.768z"/></symbol>
<symbol id="icon-instagram" viewBox="0 0 32 32"><path  d="M31.968 9.408c-.074-1.701-.349-2.869-.742-3.882a7.839 7.839 0 0 0-1.85-2.837l-.001-.001A7.906 7.906 0 0 0 26.597.861l-.054-.018C25.524.449 24.362.176 22.661.101 20.949.019 20.405 0 16.059 0c-4.344 0-4.888.019-6.595.094-1.699.074-2.869.349-3.88.742a7.847 7.847 0 0 0-2.839 1.85l-.001.001A7.9 7.9 0 0 0 .919 5.465l-.018.054C.506 6.538.232 7.7.157 9.401c-.082 1.712-.101 2.256-.101 6.602 0 4.344.019 4.888.094 6.595.075 1.701.35 2.869.744 3.882a7.915 7.915 0 0 0 1.849 2.837l.001.001c.8.813 1.77 1.443 2.832 1.843 1.019.395 2.182.67 3.882.744 1.707.075 2.251.094 6.595.094 4.346 0 4.89-.019 6.595-.094 1.701-.074 2.869-.349 3.882-.742a8.237 8.237 0 0 0 4.664-4.628l.019-.055c.394-1.019.669-2.182.744-3.882.075-1.707.093-2.251.093-6.595s-.006-4.888-.08-6.595zm-2.88 13.066c-.07 1.563-.333 2.406-.55 2.97a5.341 5.341 0 0 1-3.004 3.024l-.036.012c-.56.219-1.411.482-2.968.55-1.688.075-2.194.094-6.464.094-4.269 0-4.782-.019-6.464-.094-1.563-.069-2.406-.331-2.97-.55a4.953 4.953 0 0 1-1.836-1.192l-.001-.001a4.978 4.978 0 0 1-1.184-1.803L3.6 25.45c-.218-.563-.48-1.413-.549-2.97-.075-1.688-.094-2.195-.094-6.464 0-4.27.019-4.784.094-6.464.069-1.563.331-2.406.549-2.97a4.897 4.897 0 0 1 1.198-1.837l.002-.002a4.972 4.972 0 0 1 1.806-1.182l.034-.011c.56-.219 1.411-.48 2.968-.55 1.688-.074 2.195-.093 6.464-.093 4.275 0 4.782.019 6.464.093 1.563.069 2.406.331 2.97.55a4.91 4.91 0 0 1 1.837 1.194c.531.52.938 1.144 1.195 1.84.218.56.48 1.411.549 2.968.075 1.688.094 2.194.094 6.464 0 4.269-.019 4.768-.094 6.458z"/><path  d="M16.059 7.782a8.223 8.223 0 0 0-8.219 8.221 8.223 8.223 0 0 0 16.442.008v-.009a8.223 8.223 0 0 0-8.221-8.221zm0 13.552a5.333 5.333 0 0 1 .001-10.666h.001a5.334 5.334 0 1 1 0 10.668zM26.525 7.458a1.92 1.92 0 0 1-3.84 0 1.92 1.92 0 0 1 3.84 0z"/></symbol>
<symbol id="icon-linkedin" viewBox="0 0 32 32"><path d="M31.992 32H32V20.262c0-5.741-1.237-10.163-7.947-10.163-3.227 0-5.392 1.77-6.277 3.45h-.093v-2.914h-6.365v21.363h6.627V21.42c0-2.786.528-5.48 3.978-5.48 3.398 0 3.448 3.179 3.448 5.658V32h6.621zM.528 10.635h6.635V32H.528V10.635zM3.843 0A3.843 3.843 0 0 0 0 3.843c0 2.12 1.722 3.878 3.843 3.878 2.12 0 3.842-1.757 3.842-3.878S5.965.002 3.844 0z"/></symbol>
<symbol id="icon-twitter" viewBox="0 0 36 32"><path d="M35.556 4.976c-1.222.548-2.64.952-4.125 1.142l-.076.008a7.29 7.29 0 0 0 3.193-3.977l.015-.051a14.295 14.295 0 0 1-4.529 1.748l-.093.016a7.287 7.287 0 0 0-12.606 4.981v.004c0 .578.048 1.134.169 1.662-6.06-.295-11.422-3.2-15.024-7.623a7.253 7.253 0 0 0-1.003 3.681v.001a7.307 7.307 0 0 0 3.237 6.059 7.162 7.162 0 0 1-3.327-.915l.036.019v.08a7.325 7.325 0 0 0 5.792 7.152l.048.009a7.086 7.086 0 0 1-1.854.24h-.061.003c-.466 0-.937-.027-1.38-.124.944 2.887 3.623 5.01 6.811 5.077a14.55 14.55 0 0 1-9.025 3.111h-.014.001-.069c-.59 0-1.172-.038-1.743-.11l.068.007c3.14 2.051 6.986 3.271 11.116 3.271h.07-.004c13.413 0 20.747-11.111 20.747-20.743 0-.32-.011-.633-.027-.942a14.673 14.673 0 0 0 3.62-3.727l.033-.052z"/></symbol>
<symbol id="icon-x-close" viewBox="0 0 32 32">
<path stroke-linejoin="round" stroke-linecap="round" stroke-miterlimit="4" stroke-width="3.4286" d="M24 8l-16 16M8 8l16 16"  stroke="#000"></path></symbol>
<symbol id="icon-burger-menu" viewBox="0 0 32 32">
<path stroke-linejoin="round" stroke-linecap="round" stroke-miterlimit="4" stroke-width="2.2857" d="M22.667 13.333h-18.667"></path>
<path stroke-linejoin="round" stroke-linecap="round" stroke-miterlimit="4" stroke-width="2.2857" d="M28 8h-24"></path>
<path stroke-linejoin="round" stroke-linecap="round" stroke-miterlimit="4" stroke-width="2.2857" d="M28 18.667h-24"></path>
<path stroke-linejoin="round" stroke-linecap="round" stroke-miterlimit="4" stroke-width="2.2857" d="M22.667 24h-18.667"></path>
<symbol id="icon-pot">
<svg fill="#000000" height="200px" width="200px" version="1.1" id="Capa_1" xmlns="http://www.w3.org/2000/svg" xmlns:xlink="http://www.w3.org/1999/xlink" viewBox="0 0 612 612" xml:space="preserve"><g id="SVGRepo_bgCarrier" stroke-width="0"></g><g id="SVGRepo_tracerCarrier" stroke-linecap="round" stroke-linejoin="round"></g><g id="SVGRepo_iconCarrier"> <g> <path d="M517.002,127.269c34.795-48.858,48.567-97.321,49.136-99.359c1.588-5.689,0.565-11.789-2.793-16.647 c-3.36-4.86-8.703-7.972-14.587-8.499C528.185,0.93,508.54,0,490.369,0c-91.523,0-153.357,23.368-183.782,69.456 c-31.759,48.104-18.893,105.348-8.956,134.088c-0.016,0.027-0.031,0.053-0.046,0.078c-6.111-4.977-12.544-8.849-18.563-11.7 c-8.083-43.785-36.625-88.232-96.018-88.232c-35.876,0-80.007,16.408-131.173,48.769c-3.615,2.286-6.027,6.063-6.579,10.303 c-0.554,4.242,0.808,8.511,3.715,11.649c2.623,2.831,65.198,69.347,147.254,69.347c20.353,0,40.183-4.142,59.18-12.339 c4.999,1.786,19.32,8.008,23.498,21.693c-3.719,16.277-6.058,34.191-6.92,53.19H90.676c-12.338,0-22.338,10.001-22.338,22.338 v23.308c0,12.338,10.001,22.337,22.338,22.337h15.216L137.81,592.89c1.602,10.974,11.012,19.11,22.103,19.11h286.694 c11.091,0,20.501-8.136,22.103-19.11l31.911-218.604h15.22c12.338,0,22.338-10.001,22.338-22.337v-23.31 c0-12.338-10.001-22.338-22.338-22.338H317.43c1.71-33.528,8.615-60.571,18.14-77.553 C407.427,228.128,470.132,193.082,517.002,127.269z M83.253,167.056c39.467-22.953,72.967-34.572,99.751-34.572 c36.966,0,54.318,23.243,62.463,45.171c-1.169-0.658-2.375-1.327-3.646-2.009c-12.044-6.528-28.857-13.734-46.45-17.672 c-4.373-1.028-8.808-1.792-13.163-2.425c-2.18-0.31-4.362-0.507-6.493-0.758c-2.144-0.149-4.262-0.295-6.344-0.443 c-2.082-0.047-4.127-0.095-6.129-0.14c-1.996,0.046-3.947,0.093-5.848,0.139c-3.794,0.232-7.348,0.503-10.606,0.975 c-1.632,0.175-3.181,0.436-4.65,0.718c-1.467,0.272-2.857,0.496-4.154,0.766c-2.581,0.629-4.824,1.107-6.646,1.617 c-3.613,1.077-5.678,1.694-5.678,1.694s2.138-0.171,5.881-0.472c1.865-0.118,4.142-0.12,6.723-0.197 c1.296,0.007,2.676,0.077,4.122,0.113c1.444,0.029,2.96,0.093,4.539,0.257c3.157,0.206,6.548,0.667,10.099,1.194 c1.763,0.332,3.575,0.673,5.427,1.023c1.825,0.432,3.69,0.875,5.587,1.323c1.867,0.538,3.764,1.081,5.688,1.633 c1.896,0.645,3.819,1.236,5.726,1.938c3.81,1.413,7.625,2.935,11.339,4.69c14.93,6.852,28.318,16.354,37.485,24.19 c4.61,3.897,8.196,7.367,10.575,9.8c0.37,0.377,0.7,0.722,1.012,1.048c-14.128,5.511-28.733,8.305-43.634,8.305 C146.748,214.965,103.918,184.633,83.253,167.056z M339.763,91.36c22.604-34.242,73.277-51.604,150.604-51.604 c9.277,0,18.986,0.263,29.049,0.78c-18.246,44.301-67.983,137.118-167.304,147.514c0.177-0.598,0.365-1.229,0.58-1.927 c1.385-4.488,3.597-11.014,6.796-18.712c1.573-3.861,3.44-7.988,5.5-12.334c2.109-4.309,4.384-8.865,6.991-13.437 c2.556-4.607,5.401-9.255,8.437-13.905c1.562-2.282,3.077-4.661,4.756-6.909l2.477-3.434l2.59-3.354 c3.451-4.501,7.173-8.777,10.96-12.921c1.9-2.062,3.885-4.001,5.806-5.994c2.013-1.892,3.998-3.759,5.954-5.596 c2.044-1.752,4.056-3.473,6.025-5.157c2.053-1.597,4.063-3.159,6.018-4.679c2.033-1.435,4.009-2.827,5.921-4.176 c1.918-1.364,3.885-2.481,5.722-3.67c0.93-0.574,1.83-1.165,2.733-1.695c0.915-0.507,1.808-1.004,2.68-1.488 c1.752-0.959,3.402-1.914,4.988-2.74c3.217-1.537,6.016-2.973,8.38-4.007c4.783-1.994,7.518-3.134,7.518-3.134 s-2.924,0.549-8.043,1.509c-2.558,0.525-5.615,1.351-9.182,2.211c-1.763,0.489-3.613,1.088-5.587,1.683 c-0.986,0.304-2,0.613-3.035,0.932c-1.028,0.343-2.06,0.742-3.126,1.125c-2.113,0.804-4.386,1.531-6.636,2.503 c-2.26,0.968-4.599,1.969-7.004,2.999c-2.363,1.145-4.789,2.321-7.266,3.524c-2.432,1.322-4.913,2.671-7.438,4.043 c-2.466,1.495-4.973,3.013-7.509,4.55c-2.461,1.653-5.013,3.274-7.494,5.031c-4.946,3.527-9.908,7.266-14.629,11.291 c-4.798,3.958-9.324,8.22-13.729,12.502c-4.355,4.322-8.524,8.717-12.38,13.136c-3.907,4.386-7.45,8.818-10.785,13.069 c-3.279,4.286-6.315,8.411-8.982,12.323c-1.054,1.528-2.045,3.006-3.001,4.453C324.619,133.264,327.418,110.06,339.763,91.36z"></path> </g> </g></svg>
</symbol>


</svg>

